<mxfile host="65bd71144e">
    <diagram id="72Xqg6CQWOiP1JtRe9f1" name="Page-1">
        <mxGraphModel dx="782" dy="563" grid="1" gridSize="10" guides="1" tooltips="1" connect="1" arrows="1" fold="1" page="1" pageScale="1" pageWidth="850" pageHeight="1100" math="0" shadow="0">
            <root>
                <mxCell id="0"/>
                <mxCell id="1" parent="0"/>
                <mxCell id="2" value="Start" style="strokeWidth=2;html=1;shape=mxgraph.flowchart.start_1;whiteSpace=wrap;" vertex="1" parent="1">
                    <mxGeometry x="375" y="60" width="100" height="60" as="geometry"/>
                </mxCell>
                <mxCell id="4" value="_name_ == ' _main_ '" style="strokeWidth=2;html=1;shape=mxgraph.flowchart.decision;whiteSpace=wrap;" vertex="1" parent="1">
                    <mxGeometry x="345" y="180" width="160" height="160" as="geometry"/>
                </mxCell>
                <mxCell id="6" value="format_strings" style="verticalLabelPosition=middle;verticalAlign=middle;html=1;shape=process;whiteSpace=wrap;rounded=1;size=0.14;arcSize=6;labelPosition=center;align=center;" vertex="1" parent="1">
                    <mxGeometry x="353" y="390" width="145" height="60" as="geometry"/>
                </mxCell>
                <mxCell id="7" value="format_strings" style="verticalLabelPosition=middle;verticalAlign=middle;html=1;shape=process;whiteSpace=wrap;rounded=1;size=0.14;arcSize=6;labelPosition=center;align=center;" vertex="1" parent="1">
                    <mxGeometry x="100" y="390" width="145" height="60" as="geometry"/>
                </mxCell>
                <mxCell id="8" value="format_strings" style="verticalLabelPosition=middle;verticalAlign=middle;html=1;shape=process;whiteSpace=wrap;rounded=1;size=0.14;arcSize=6;labelPosition=center;align=center;" vertex="1" parent="1">
                    <mxGeometry x="600" y="390" width="145" height="60" as="geometry"/>
                </mxCell>
                <mxCell id="9" value="" style="strokeWidth=2;html=1;shape=mxgraph.flowchart.display;whiteSpace=wrap;" vertex="1" parent="1">
                    <mxGeometry x="375" y="520" width="100" height="60" as="geometry"/>
                </mxCell>
            </root>
        </mxGraphModel>
    </diagram>
</mxfile>